<?xml version="1.0" standalone="no"?><!DOCTYPE svg PUBLIC "-//W3C//DTD SVG 1.1//EN" "http://www.w3.org/Graphics/SVG/1.1/DTD/svg11.dtd"><svg t="1582908256910" class="icon" viewBox="0 0 1024 1024" version="1.1" xmlns="http://www.w3.org/2000/svg" p-id="5714" xmlns:xlink="http://www.w3.org/1999/xlink" width="81" height="81"><defs><style type="text/css"></style></defs><path d="M679.3 110c-53.7-22.7-110.7-34.2-169.5-34.2S394 87.3 340.3 110c-51.9 21.9-98.4 53.3-138.4 93.3s-71.4 86.6-93.3 138.4c-22.7 53.7-34.2 110.7-34.2 169.5S85.9 627 108.6 680.7c21.9 51.9 53.3 98.4 93.3 138.4s86.6 71.4 138.4 93.3c53.7 22.7 110.7 34.2 169.5 34.2s115.8-11.5 169.5-34.2c51.9-21.9 98.4-53.3 138.4-93.3s71.4-86.6 93.3-138.4c22.7-53.7 34.2-110.7 34.2-169.5S933.8 395.4 911 341.7c-21.9-51.9-53.3-98.4-93.3-138.4s-86.6-71.4-138.4-93.3z m-184.5 44.7c93.1 0 171.9 75.2 171.9 168.3 0 93.1-78.8 168.3-171.9 168.3S322.9 416.1 322.9 323s78.8-168.3 171.9-168.3z m79 673.3H444.9c-121.8 0-214.9 0-214.9-60.9v-10.7c0-118.2 96.7-211.3 214.9-211.3h125.3c118.2 0 214.9 96.7 214.9 211.3v7.2c3.6 64.4-96.7 64.4-211.3 64.4z" p-id="5715" fill="#2c2c2c"></path></svg>